<svg width="852" height="346" viewBox="0 0 852 346" fill="none" xmlns="http://www.w3.org/2000/svg">
<rect width="846.042" height="346" fill="#10192E"/>
<rect x="36.7413" width="0.993007" height="346" fill="#162854"/>
<rect x="76.4615" width="0.993007" height="346" fill="#162854"/>
<rect x="118.168" width="0.993007" height="346" fill="#162854"/>
<rect x="118.168" width="0.993007" height="346" fill="#162854"/>
<rect x="157.888" width="0.993007" height="346" fill="#162854"/>
<rect x="199.594" width="0.993007" height="346" fill="#162854"/>
<rect x="199.594" width="0.993007" height="346" fill="#162854"/>
<rect x="239.315" width="0.993007" height="346" fill="#162854"/>
<rect x="281.021" width="0.993007" height="346" fill="#162854"/>
<rect x="281.021" width="0.993007" height="346" fill="#162854"/>
<rect x="320.741" width="0.993007" height="346" fill="#162854"/>
<rect x="362.448" width="0.993007" height="346" fill="#162854"/>
<rect x="362.448" width="0.993007" height="346" fill="#162854"/>
<rect x="402.168" width="0.993007" height="346" fill="#162854"/>
<rect x="443.874" width="0.993007" height="346" fill="#162854"/>
<rect x="443.874" width="0.993007" height="346" fill="#162854"/>
<rect x="483.594" width="0.993007" height="346" fill="#162854"/>
<rect x="525.301" width="0.993007" height="346" fill="#162854"/>
<rect x="525.301" width="0.993007" height="346" fill="#162854"/>
<rect x="565.021" width="0.993007" height="346" fill="#162854"/>
<rect x="606.727" width="0.993007" height="346" fill="#162854"/>
<rect x="606.727" width="0.993007" height="346" fill="#162854"/>
<rect x="646.448" width="0.993007" height="346" fill="#162854"/>
<rect x="688.154" width="0.993007" height="346" fill="#162854"/>
<rect x="525.301" width="0.993007" height="346" fill="#162854"/>
<rect x="565.021" width="0.993007" height="346" fill="#162854"/>
<rect x="606.727" width="0.993007" height="346" fill="#162854"/>
<rect x="606.727" width="0.993007" height="346" fill="#162854"/>
<rect x="646.448" width="0.993007" height="346" fill="#162854"/>
<rect x="688.154" width="0.993007" height="346" fill="#162854"/>
<rect x="688.154" width="0.993007" height="346" fill="#162854"/>
<rect x="727.874" width="0.993007" height="346" fill="#162854"/>
<rect x="769.58" width="0.993007" height="346" fill="#162854"/>
<rect x="769.58" width="0.993007" height="346" fill="#162854"/>
<rect x="809.301" width="0.993007" height="346" fill="#162854"/>
<rect x="851.007" width="0.993007" height="346" fill="#162854"/>
<rect y="36" width="846.042" height="1" fill="#162854"/>
<rect y="76" width="846.042" height="1" fill="#162854"/>
<rect y="76" width="846.042" height="1" fill="#162854"/>
<rect y="115" width="846.042" height="1" fill="#162854"/>
<rect y="115" width="846.042" height="1" fill="#162854"/>
<rect y="115" width="846.042" height="1" fill="#162854"/>
<rect y="115" width="846.042" height="1" fill="#162854"/>
<rect y="154" width="846.042" height="1" fill="#162854"/>
<rect y="154" width="846.042" height="1" fill="#162854"/>
<rect y="154" width="846.042" height="1" fill="#162854"/>
<rect y="194" width="846.042" height="1" fill="#162854"/>
<rect y="272" width="846.042" height="1" fill="#162854"/>
<rect y="312" width="846.042" height="1" fill="#162854"/>
<rect y="345" width="846.042" height="1" fill="#162854"/>
<rect y="194" width="846.042" height="1" fill="#162854"/>
<rect y="233" width="846.042" height="1" fill="#162854"/>
<rect y="233" width="846.042" height="1" fill="#162854"/>
<rect y="233" width="846.042" height="1" fill="#162854"/>
<rect y="233" width="846.042" height="1" fill="#162854"/>
<rect y="272" width="846.042" height="1" fill="#162854"/>
<rect y="272" width="846.042" height="1" fill="#162854"/>
<rect width="846.042" height="1" fill="#162854"/>
<rect width="852" height="346" fill="url(#paint0_linear_6_72)"/>
<defs>
<linearGradient id="paint0_linear_6_72" x1="852" y1="173" x2="4.77154e-06" y2="173" gradientUnits="userSpaceOnUse">
<stop offset="0.442488" stop-color="#121D35"/>
<stop offset="1" stop-color="#10192E" stop-opacity="0.24"/>
</linearGradient>
</defs>
</svg>
